<?xml version="1.0" encoding="UTF-8" standalone="no"?>
<svg
   xmlns:dc="http://purl.org/dc/elements/1.1/"
   xmlns:cc="http://creativecommons.org/ns#"
   xmlns:rdf="http://www.w3.org/1999/02/22-rdf-syntax-ns#"
   xmlns:svg="http://www.w3.org/2000/svg"
   xmlns="http://www.w3.org/2000/svg"
   xmlns:sodipodi="http://sodipodi.sourceforge.net/DTD/sodipodi-0.dtd"
   xmlns:inkscape="http://www.inkscape.org/namespaces/inkscape"
   height="22pt"
   viewBox="-40 0 22 22.000067"
   width="22pt"
   version="1.1"
   id="svg10"
   sodipodi:docname="trash.svg"
   inkscape:version="0.92.4 (unknown)">
  <metadata
     id="metadata16">
    <rdf:RDF>
      <cc:Work
         rdf:about="">
        <dc:format>image/svg+xml</dc:format>
        <dc:type
           rdf:resource="http://purl.org/dc/dcmitype/StillImage" />
        <dc:title></dc:title>
      </cc:Work>
    </rdf:RDF>
  </metadata>
  <defs
     id="defs14" />
  <sodipodi:namedview
     pagecolor="#ffffff"
     bordercolor="#666666"
     borderopacity="1"
     objecttolerance="10"
     gridtolerance="10"
     guidetolerance="10"
     inkscape:pageopacity="0"
     inkscape:pageshadow="2"
     inkscape:window-width="1975"
     inkscape:window-height="1309"
     id="namedview12"
     showgrid="false"
     inkscape:zoom="6.6323185"
     inkscape:cx="48.090572"
     inkscape:cy="14.020015"
     inkscape:window-x="0"
     inkscape:window-y="54"
     inkscape:window-maximized="0"
     inkscape:current-layer="svg10" />
  <path
     d="m -26.24252,9.1480133 c -0.222975,0 -0.40369,0.164789 -0.40369,0.368115 v 6.9573727 c 0,0.203182 0.180715,0.368115 0.40369,0.368115 0.222975,0 0.40369,-0.164933 0.40369,-0.368115 V 9.5161283 c 0,-0.203326 -0.180715,-0.368115 -0.40369,-0.368115 z m 0,0"
     id="path2"
     inkscape:connector-curvature="0"
     style="stroke-width:0.0385492" />
  <path
     d="m -31.006055,9.1480133 c -0.222975,0 -0.403689,0.164789 -0.403689,0.368115 v 6.9573727 c 0,0.203182 0.180714,0.368115 0.403689,0.368115 0.222975,0 0.403689,-0.164933 0.403689,-0.368115 V 9.5161283 c 0,-0.203326 -0.180714,-0.368115 -0.403689,-0.368115 z m 0,0"
     id="path4"
     inkscape:connector-curvature="0"
     style="stroke-width:0.0385492" />
  <path
     d="m -34.477785,8.1326772 v 9.0695768 c 0,0.536067 0.215565,1.039493 0.592132,1.400706 0.374831,0.362219 0.896474,0.567846 1.442401,0.568708 h 7.63793 c 0.546085,-8.74e-4 1.067727,-0.206489 1.442401,-0.568708 0.376566,-0.361213 0.59213,-0.864639 0.59213,-1.400706 V 8.1326772 c 0.748561,-0.1811814 1.233618,-0.840625 1.133484,-1.5410496 -0.100291,-0.7002812 -0.754552,-1.2241264 -1.529131,-1.2242702 h -2.066859 V 4.9072138 c 0.0023,-0.3869522 -0.165417,-0.7585184 -0.46582,-1.0318723 -0.300401,-0.2732102 -0.708505,-0.4253451 -1.132853,-0.4221821 h -3.584635 c -0.424348,-0.00315 -0.832452,0.1489719 -1.132854,0.4221821 -0.300402,0.2733539 -0.468185,0.6449201 -0.46582,1.0318723 v 0.4601436 h -2.066858 c -0.774579,1.474e-4 -1.42884,0.523989 -1.529132,1.2242702 -0.100133,0.7004246 0.384925,1.3598682 1.133484,1.5410496 z m 9.672463,10.3027608 h -7.63793 c -0.690215,0 -1.227153,-0.540669 -1.227153,-1.233184 V 8.1650312 h 10.092235 v 9.0372228 c 0,0.692515 -0.536938,1.233184 -1.227152,1.233184 z M -31.2079,4.9072138 c -0.0027,-0.1916786 0.07995,-0.3761677 0.229125,-0.5114785 0.149019,-0.135311 0.35181,-0.2096532 0.56217,-0.2063457 h 3.584635 c 0.21036,-0.0033 0.413151,0.071035 0.56217,0.2063457 0.149175,0.1351674 0.231805,0.3197999 0.229125,0.5114785 V 5.3673574 H -31.2079 Z m -2.874237,1.1963735 h 10.915699 c 0.401323,0 0.726641,0.2966491 0.726641,0.6626071 0,0.3659582 -0.325318,0.6626068 -0.726641,0.6626068 h -10.915699 c -0.401324,0 -0.726641,-0.2966486 -0.726641,-0.6626068 0,-0.365958 0.325317,-0.6626071 0.726641,-0.6626071 z m 0,0"
     id="path6"
     inkscape:connector-curvature="0"
     style="stroke-width:0.0385492" />
  <path
     d="m -28.624288,9.1480133 c -0.222974,0 -0.403689,0.164789 -0.403689,0.368115 v 6.9573727 c 0,0.203182 0.180715,0.368115 0.403689,0.368115 0.222975,0 0.40369,-0.164933 0.40369,-0.368115 V 9.5161283 c 0,-0.203326 -0.180715,-0.368115 -0.40369,-0.368115 z m 0,0"
     id="path8"
     inkscape:connector-curvature="0"
     style="stroke-width:0.0385492" />
</svg>
